name C:\Users\tom_v\MusculoskeletalSpecialization\ResultsSprinting\Case_7\motion.mot
datacolumns 32
datarows 13
range 0.14209991 0.21030786
endheader 
time	pelvis_tilt	pelvis_list	pelvis_rotation	pelvis_tx	pelvis_ty	pelvis_tz	hip_flexion_r	hip_adduction_r	hip_rotation_r	knee_angle_r	ankle_angle_r	subtalar_angle_r	mtp_angle_r	hip_flexion_l	hip_adduction_l	hip_rotation_l	knee_angle_l	ankle_angle_l	subtalar_angle_l	mtp_angle_l	lumbar_extension	lumbar_bending	lumbar_rotation	arm_flex_r	arm_add_r	arm_rot_r	elbow_flex_r	arm_flex_l	arm_add_l	arm_rot_l	elbow_flex_l	
          0.14209991	        -11.28496203	          2.34954900	          0.53064364	          0.46066700	          0.88689723	          0.00562161	         12.33412725	          3.25569665	          7.24350176	        -41.26552501	         12.92253406	          0.31747437	         46.00421026	         40.30402786	          3.27167928	         -3.85791284	        -75.45122023	         14.40372900	          2.77173745	          2.62478359	         -0.95068546	         -2.40274083	          2.27351364	         16.25090734	          0.24176095	          8.45120378	          0.60087145	         -8.09944872	         -8.09561594	          2.18780134	         71.32074629	
          0.14778390	        -11.32250415	          2.57696753	          0.50803915	          0.47952083	          0.88890421	          0.00543038	         10.78203664	          2.70897617	          7.02673448	        -40.27110224	         11.49414365	          1.13933158	         47.41808868	         41.54394488	          3.57289628	         -3.92385553	        -74.51834446	         14.32568138	          2.29625315	          2.43558934	         -0.96698474	         -2.76630267	          2.49157817	         16.32084676	          0.29115242	          8.15458988	          0.29981165	         -8.64414210	         -8.14213498	          1.86025071	         72.98432277	
          0.15346790	        -11.35703231	          2.78530992	          0.48965078	          0.49845884	          0.89079875	          0.00522574	          9.26537463	          2.18507161	          6.81277521	        -39.34397897	         10.07953800	          2.01774618	         48.46300806	         42.71620655	          3.85398610	         -3.95341224	        -73.45390150	         14.11604901	          1.84395871	          2.25997999	         -0.97516974	         -3.10992506	          2.70166093	         16.33393982	          0.31949880	          7.92188101	          0.11987979	         -9.14002957	         -8.17746656	          1.56667876	         74.48611219	
          0.15915190	        -11.38834770	          2.97371246	          0.47489375	          0.51746770	          0.89256710	          0.00501057	          7.80339075	          1.68858422	          6.60373048	        -38.51507862	          8.65717109	          2.93473285	         49.16570089	         43.81827896	          4.11539871	         -3.94410599	        -72.26044742	         13.78328139	          1.41152416	          2.09583601	         -0.97676944	         -3.43214137	          2.90257450	         16.30329715	          0.33185834	          7.76275866	          0.02931418	         -9.58570038	         -8.20282751	          1.30591528	         75.82498780	
          0.16483589	        -11.41625987	          3.14179978	          0.46339726	          0.53653943	          0.89419780	          0.00478574	          6.40667931	          1.22064836	          6.39842067	        -37.79626561	          7.20626566	          3.87749350	         49.57069554	         44.84861968	          4.35813237	         -3.89402125	        -70.94489248	         13.33961161	          0.99605730	          1.94177390	         -0.97274886	         -3.73204200	          3.09381069	         16.23960729	          0.33210671	          7.68302081	          0.00051111	         -9.97997804	         -8.21924056	          1.07784440	         76.99954875	
          0.17051989	        -11.44059096	          3.28925831	          0.45474561	          0.55566757	          0.89568015	          0.00455189	          5.08108896	          0.78149170	          6.19665774	        -37.19184376	          5.71773916	          4.83904985	         49.70639103	         45.80644709	          4.58226031	         -3.80344347	        -69.51573798	         12.79768458	          0.59518368	          1.79735476	         -0.96409611	         -4.00872782	          3.27454818	         16.15228124	          0.32349079	          7.68535864	          0.00989004	        -10.32244510	         -8.22762893	          0.88215349	         78.00936083	
          0.17620388	        -11.46144386	          3.41529518	          0.44772071	          0.57484161	          0.89700443	          0.00430862	          3.83055314	          0.37113500	          6.00097349	        -36.70102233	          4.18759530	          5.81679731	         49.59341473	         46.69179601	          4.78685388	         -3.67352710	        -67.98075809	         12.16822990	          0.20763528	          1.66223994	         -0.95265988	         -4.26022219	          3.44410528	         16.05004728	          0.30819003	          7.76937179	          0.03896557	        -10.61284260	         -8.22833180	          0.71827948	         78.85491655	
          0.18188788	        -11.47888902	          3.51938951	          0.44152894	          0.59405459	          0.89816406	          0.00405608	          2.65570019	         -0.01029449	          5.81250924	        -36.31662491	          2.60892929	          6.80209945	         49.25311061	         47.50088604	          4.97162362	         -3.50620354	        -66.34106478	         11.46523781	         -0.16861206	          1.53598556	         -0.94007350	         -4.48513255	          3.60141832	         15.93902193	          0.28786420	          7.93089678	          0.07545619	        -10.85128747	         -8.22192544	          0.58600525	         79.53652349	
          0.18757188	        -11.49298182	          3.60171685	          0.43454242	          0.61330230	          0.89915657	          0.00379430	          1.55933769	         -0.36324026	          5.63345731	        -36.03579876	          0.97484087	          7.78731960	         48.69931834	         48.22352917	          5.13710242	         -3.30355150	        -64.58753112	         10.69827630	         -0.53454275	          1.42013086	         -0.92739320	         -4.68243241	          3.74522587	         15.82412630	          0.26398782	          8.16407196	          0.11058154	        -11.03866336	         -8.20868333	          0.48448441	         80.05362275	
          0.19325587	        -11.50378021	          3.66205633	          0.42346029	          0.63257845	          0.89998080	          0.00352107	          0.54948056	         -0.68884824	          5.46738912	        -35.86475637	         -0.71722379	          8.77377684	         47.93359499	         48.84690692	          5.28328672	         -3.06783746	        -62.71133497	          9.87597805	         -0.89079376	          1.31398694	         -0.91570815	         -4.84946283	          3.87436859	         15.71076591	          0.23743644	          8.46300736	          0.13711390	        -11.17651549	         -8.18771620	          0.41178974	         80.40539024	
          0.19893987	        -11.51110859	          3.70083315	          0.40475373	          0.65187790	          0.90063388	          0.00323411	         -0.36174939	         -0.98877458	          5.31890342	        -35.81791209	         -2.47036086	          9.76342695	         46.95282351	         49.35926076	          5.41220278	         -2.79853526	        -60.71699724	          9.01142143	         -1.23739348	          1.21738642	         -0.90570137	         -4.98437778	          3.98747102	         15.60356868	          0.20902021	          8.82137226	          0.15014331	        -11.26700820	         -8.15808047	          0.36549089	         80.59191985	
          0.20462387	        -11.51466971	          3.71868837	          0.37571305	          0.67119731	          0.90111218	          0.00293274	         -1.16080642	         -1.26494977	          5.18698345	        -35.90999573	         -4.29619794	         10.75290904	         45.76070222	         49.75073798	          5.52655735	         -2.49489832	        -58.61973732	          8.12230947	         -1.57485837	          1.12936262	         -0.89761259	         -5.08641507	          4.08328277	         15.50543857	          0.17942965	          9.23178244	          0.14779205	        -11.31201262	         -8.11924320	          0.34359656	         80.61380500	
          0.21030786	        -11.51407182	          3.71706206	          0.33434535	          0.69053496	          0.90141181	          0.00261593	         -1.83314859	         -1.52023973	          5.06706794	        -36.15597910	         -6.21287895	         11.73578107	         44.36296043	         50.01348688	          5.63047220	         -2.15639360	        -56.44257124	          7.22918898	         -1.90300432	          1.04991941	         -0.89126692	         -5.15615045	          4.16100120	         15.41770414	          0.14901681	          9.68661223	          0.13067663	        -11.31279884	         -8.07090985	          0.34478839	         80.47160063	
